<?xml version="1.0" encoding="UTF-8"?>
<svg version="1.1" xmlns="http://www.w3.org/2000/svg" width="326" height="326">
<path d="M0 0 C0.72849152 -0.00974854 1.45698303 -0.01949707 2.20755005 -0.02954102 C18.54558906 -0.20316754 34.21078665 0.0290761 50.1171875 4.23828125 C50.83664551 4.42551758 51.55610352 4.61275391 52.29736328 4.80566406 C95.34895692 16.36997523 130.56775023 44.62742445 153.10620117 82.77563477 C165.17140791 103.94639347 173.08126699 128.6321784 173.35546875 153.12109375 C173.36521729 153.84958527 173.37496582 154.57807678 173.38500977 155.3286438 C173.55863629 171.66668281 173.32639265 187.3318804 169.1171875 203.23828125 C168.92995117 203.95773926 168.74271484 204.67719727 168.54980469 205.41845703 C156.98549352 248.47005067 128.7280443 283.68884398 90.57983398 306.22729492 C69.40907528 318.29250166 44.72329035 326.20236074 20.234375 326.4765625 C19.50588348 326.48631104 18.77739197 326.49605957 18.02682495 326.50610352 C1.68878594 326.67973004 -13.97641165 326.4474864 -29.8828125 322.23828125 C-30.60227051 322.05104492 -31.32172852 321.86380859 -32.06298828 321.67089844 C-75.11458192 310.10658727 -110.33337523 281.84913805 -132.87182617 243.70092773 C-144.93703291 222.53016903 -152.84689199 197.8443841 -153.12109375 173.35546875 C-153.13084229 172.62697723 -153.14059082 171.89848572 -153.15063477 171.1479187 C-153.32426129 154.80987969 -153.09201765 139.1446821 -148.8828125 123.23828125 C-148.69557617 122.51882324 -148.50833984 121.79936523 -148.31542969 121.05810547 C-136.75111852 78.00651183 -108.4936693 42.78771852 -70.34545898 20.24926758 C-49.17470028 8.18406084 -24.48891535 0.27420176 0 0 Z " fill="#0045A2" transform="translate(152.8828125,-0.23828125)"/>
</svg>
